<svg width="40" height="40" viewBox="0 0 40 40" fill="none" xmlns="http://www.w3.org/2000/svg">
<rect width="40" height="40" fill="#005BFF"/>
<path fill-rule="evenodd" clip-rule="evenodd" d="M40 26.4V40H7.5V34.3947V23V20.0249C9.98451 16.955 13.8814 14.3932 18.6069 13.0628C21.9762 12.1143 25.3154 11.9201 28.3052 12.3662L37.1667 23L39.2231 25.4677L40 26.4Z" fill="#F91155"/>
<path fill-rule="evenodd" clip-rule="evenodd" d="M8.6013 23.4809C9.46628 26.5534 15.3294 28.613 21.8741 26.7705C28.4365 24.923 32.3329 20.1157 31.4679 17.0433C30.6029 13.9708 24.7544 11.9118 18.2097 13.7544C11.665 15.5969 7.73631 20.4085 8.6013 23.4809ZM2.88343 25.0907C0.986148 18.3515 7.13069 10.7308 16.6073 8.06285C26.0839 5.39492 35.322 8.69446 37.2168 15.4248C39.1116 22.1552 32.9517 29.7897 23.4752 32.4576C13.9985 35.1255 4.78071 31.8299 2.88343 25.0907Z" fill="white"/>
</svg>
