<svg width="90" height="48" viewBox="0 0 90 48" fill="none" xmlns="http://www.w3.org/2000/svg"><path d="M35.03 21.708h4.043v-10.91h5.34V7.052h-9.384v14.655Zm-8.354-3.268a3.179 3.179 0 0 1-3.323-3.322h9.97s.067-.754.067-1.529c0-4.43-2.626-6.868-6.725-6.868-4.331 0-7.345 3.157-7.345 7.665 0 4.509 2.97 7.754 7.301 7.754 4.021 0 6.725-2.326 6.802-5.738h-3.955a2.525 2.525 0 0 1-2.792 2.039Zm0-8.351a2.514 2.514 0 0 1 2.848 2.215h-5.95a3.113 3.113 0 0 1 3.147-2.215h-.045ZM12.275 7.053l-2.78 8.983L6.79 7.053H2.326L0 21.708h3.711l1.407-9.116 2.736 9.116h3.18l2.836-9.283 1.352 9.283h3.766L16.673 7.053h-4.398Zm39.549-.354c-4.31 0-6.758 2.116-6.647 5.716h4.188c0-1.529.797-2.216 2.47-2.216 1.197 0 1.95.499 1.95 1.252 0 .487-.188.676-.92.886l-3.323.92c-3.235.874-4.675 2.215-4.675 4.43 0 2.625 1.905 4.375 4.708 4.375a4.255 4.255 0 0 0 4.32-2.525v2.215h3.867v-9.78c-.056-3.534-2.293-5.273-5.938-5.273Zm-1.44 11.952c-1.03 0-1.529-.499-1.529-1.23 0-.73.355-1.107 1.462-1.45l3.501-.987v.266a3.323 3.323 0 0 1-3.434 3.4Zm27.197 6.967v3.744h4.188v10.91h4.043v-10.91H90v-3.744H77.581Zm-14.557 0h-4.453l-3.146 5.439h-1.607v-5.439h-4.043v14.655h4.043v-5.616h1.584l3.38 5.616h4.564l-4.465-7.477 4.143-7.178Zm-36.093-.354c-4.31 0-6.769 2.116-6.647 5.716h4.188c0-1.53.797-2.216 2.47-2.216 1.197 0 1.95.51 1.95 1.263 0 .476-.188.665-.93.875l-3.324.92c-3.224.886-4.664 2.215-4.664 4.43 0 2.614 1.905 4.375 4.708 4.375a4.188 4.188 0 0 0 4.31-2.536v2.215h3.877v-9.814c-.055-3.489-2.293-5.228-5.938-5.228ZM25.47 37.216c-1.008 0-1.518-.499-1.518-1.24 0-.743.366-1.109 1.473-1.419l3.49-.986v.244a3.324 3.324 0 0 1-3.445 3.4Zm17.226-11.952a3.967 3.967 0 0 0-3.955 2.548v-2.216h-4.044v18.676h4.044v-6.159a3.976 3.976 0 0 0 3.955 2.492c3.323 0 5.539-2.592 5.539-7.665s-2.183-7.676-5.54-7.676Zm-1.108 11.597c-1.85 0-2.958-1.262-2.958-3.92 0-2.66 1.108-3.933 2.936-3.933 1.828 0 2.736 1.274 2.736 3.932 0 2.659-.93 3.921-2.736 3.921h.022ZM12.275 25.618l-2.78 8.972-2.704-8.972H2.326L0 40.273h3.711l1.407-9.117 2.736 9.117h3.18l2.836-9.283 1.352 9.283h3.766l-2.315-14.655h-4.398Z" fill="#6933B0"/><path d="M69.915 37.005a3.19 3.19 0 0 1-3.324-3.323h9.97s.067-.753.067-1.528c0-4.43-2.615-6.868-6.725-6.868-4.331 0-7.344 3.157-7.344 7.654 0 4.498 2.969 7.754 7.3 7.754 4.022 0 6.725-2.326 6.813-5.738h-3.966a2.525 2.525 0 0 1-2.791 2.05Zm0-8.351a2.536 2.536 0 0 1 2.858 2.215h-5.96a3.101 3.101 0 0 1 3.146-2.215h-.044Z" fill="#6933B0"/></svg>