<svg width="40" height="40" viewBox="0 0 40 40" fill="none" xmlns="http://www.w3.org/2000/svg">
<path d="M18.506 24.9169L14.8052 12.0011L12.0667 12L8.37872 24.8486L4.93763 12.0011H2L6.47846 28.7282L9.85637 28.7252L13.437 16.2302L17.0145 28.7218L20.4195 28.7255L24.9 12L21.9623 12.0043L18.506 24.9169ZM35.647 20.05C36.7659 19.2209 37.3443 18.1026 37.3443 16.6373C37.3443 15.3262 36.8814 14.2272 35.9173 13.3403C34.9721 12.4726 33.815 12.0099 32.4458 12.0099H25.8113V28.7262H32.9664C34.3937 28.7262 35.5508 28.2637 36.5342 27.3573C37.5179 26.4513 38 25.3135 38 23.9446C38 22.2094 37.1129 20.8212 35.647 20.05ZM28.5692 14.5935H32.4651C33.6799 14.5935 34.6059 15.5576 34.6059 16.7915C34.6059 18.0255 33.6799 18.9895 32.4651 18.9895H28.5692V14.5935ZM32.9856 26.1621H28.5692V21.4768H32.9856C34.2586 21.4768 35.2616 22.4987 35.2616 23.8098C35.2616 25.1209 34.2586 26.1621 32.9856 26.1621Z" fill="url(#paint0_linear_3195_20870)"/>
<defs>
<linearGradient id="paint0_linear_3195_20870" x1="2" y1="20.3733" x2="148.719" y2="20.3733" gradientUnits="userSpaceOnUse">
<stop stop-color="#CB11AB"/>
<stop offset="0.5" stop-color="#990099"/>
<stop offset="1" stop-color="#481173"/>
</linearGradient>
</defs>
</svg>
