<svg width="39" height="32" viewBox="0 0 39 32" fill="none" xmlns="http://www.w3.org/2000/svg">
<path d="M20.3274 0C11.4908 0 4.32739 7.16344 4.32739 16C4.32739 24.8366 11.4908 32 20.3274 32C29.1639 32 36.3274 24.8366 36.3274 16C36.3274 7.16344 29.1639 0 20.3274 0Z" fill="#FF5226"/>
<path d="M17.8496 2.16539L0 30.0161H8.1824L18.4939 13.9627L18.2421 13.8486L15.3835 25.3366L21.4357 26.4033L27.6565 18.5846L27.3195 18.4171L25.2181 27.2982L38.4053 24.7851L35.7152 20.3542L30.9621 21.4422L31.5232 22.0875L33.7365 12.8129L28.5803 9.36539L21.8283 17.8561L22.1643 18.0246L24.9376 6.89925L17.8496 2.16539Z" fill="#FFDD00"/>
</svg>
